<mxfile host="Electron" agent="Mozilla/5.0 (X11; Linux x86_64) AppleWebKit/537.36 (KHTML, like Gecko) draw.io/26.0.4 Chrome/128.0.6613.186 Electron/32.2.5 Safari/537.36" version="26.0.4">
  <diagram name="Page-1" id="SpDlbpGhqx3sgNanrAse">
    <mxGraphModel dx="1207" dy="1198" grid="1" gridSize="10" guides="1" tooltips="1" connect="1" arrows="1" fold="1" page="1" pageScale="1" pageWidth="850" pageHeight="1100" math="0" shadow="0">
      <root>
        <mxCell id="0" />
        <mxCell id="1" parent="0" />
        <mxCell id="kPJQbVZxli5QekYsSQvw-2" value="Target DB (different engine)" style="sketch=0;outlineConnect=0;fontColor=#232F3E;gradientColor=none;fillColor=#C925D1;strokeColor=none;dashed=0;verticalLabelPosition=bottom;verticalAlign=top;align=center;html=1;fontSize=12;fontStyle=0;aspect=fixed;pointerEvents=1;shape=mxgraph.aws4.rds_mysql_instance;" vertex="1" parent="1">
          <mxGeometry x="671" y="490" width="78" height="78" as="geometry" />
        </mxCell>
        <mxCell id="kPJQbVZxli5QekYsSQvw-8" style="edgeStyle=orthogonalEdgeStyle;rounded=0;orthogonalLoop=1;jettySize=auto;html=1;" edge="1" parent="1" source="kPJQbVZxli5QekYsSQvw-3" target="kPJQbVZxli5QekYsSQvw-7">
          <mxGeometry relative="1" as="geometry" />
        </mxCell>
        <mxCell id="kPJQbVZxli5QekYsSQvw-3" value="Source DB" style="sketch=0;outlineConnect=0;fontColor=#232F3E;gradientColor=none;fillColor=#C925D1;strokeColor=none;dashed=0;verticalLabelPosition=bottom;verticalAlign=top;align=center;html=1;fontSize=12;fontStyle=0;aspect=fixed;pointerEvents=1;shape=mxgraph.aws4.rds_oracle_instance;" vertex="1" parent="1">
          <mxGeometry x="101" y="490" width="78" height="78" as="geometry" />
        </mxCell>
        <mxCell id="kPJQbVZxli5QekYsSQvw-9" style="edgeStyle=orthogonalEdgeStyle;rounded=0;orthogonalLoop=1;jettySize=auto;html=1;" edge="1" parent="1" source="kPJQbVZxli5QekYsSQvw-7" target="kPJQbVZxli5QekYsSQvw-2">
          <mxGeometry relative="1" as="geometry" />
        </mxCell>
        <mxCell id="kPJQbVZxli5QekYsSQvw-7" value="&lt;b style=&quot;font-size: 17px;&quot;&gt;AWS Database Migration Service (DMS)&lt;/b&gt;&lt;div style=&quot;font-size: 17px;&quot;&gt;&lt;b&gt;+&lt;/b&gt;&lt;/div&gt;&lt;div style=&quot;font-size: 17px;&quot;&gt;&lt;b&gt;AWS Schema Conversion Tool (SCT)&lt;/b&gt;&lt;/div&gt;" style="sketch=0;points=[[0,0,0],[0.25,0,0],[0.5,0,0],[0.75,0,0],[1,0,0],[0,1,0],[0.25,1,0],[0.5,1,0],[0.75,1,0],[1,1,0],[0,0.25,0],[0,0.5,0],[0,0.75,0],[1,0.25,0],[1,0.5,0],[1,0.75,0]];outlineConnect=0;fontColor=#232F3E;fillColor=#C925D1;strokeColor=#ffffff;dashed=0;verticalLabelPosition=bottom;verticalAlign=top;align=center;html=1;fontSize=12;fontStyle=0;aspect=fixed;shape=mxgraph.aws4.resourceIcon;resIcon=mxgraph.aws4.database_migration_service;" vertex="1" parent="1">
          <mxGeometry x="391" y="490" width="78" height="78" as="geometry" />
        </mxCell>
      </root>
    </mxGraphModel>
  </diagram>
</mxfile>
